<?xml version="1.0" standalone="no"?>
<!DOCTYPE svg PUBLIC "-//W3C//DTD SVG 20010904//EN"
 "http://www.w3.org/TR/2001/REC-SVG-20010904/DTD/svg10.dtd">
<svg version="1.0" xmlns="http://www.w3.org/2000/svg"
 width="700.000000pt" height="700.000000pt" viewBox="0 0 700.000000 700.000000"
 preserveAspectRatio="xMidYMid meet">
<metadata>
Created by potrace 1.14, written by Peter Selinger 2001-2017
</metadata>
<g transform="translate(0.000000,700.000000) scale(0.100000,-0.100000)"
fill="#000000" stroke="none">
<path d="M745 6985 c-382 -70 -680 -379 -735 -760 -8 -58 -10 -811 -8 -2775
l3 -2695 23 -79 c48 -165 125 -296 239 -409 122 -120 251 -195 413 -239 l85
-23 2735 0 2735 0 83 23 c326 89 565 328 654 654 l23 83 0 2735 0 2735 -23 83
c-88 324 -325 562 -651 655 l-76 22 -2715 2 c-2175 1 -2729 -1 -2785 -12z
m3005 -1050 c740 -105 1329 -624 1510 -1333 45 -178 50 -275 50 -953 l0 -639
35 0 c159 0 319 -102 388 -247 l32 -68 0 -575 0 -575 -32 -65 c-41 -84 -120
-162 -203 -203 l-65 -32 -1965 0 -1965 0 -58 27 c-81 38 -170 126 -210 207
l-32 66 0 575 0 575 32 68 c69 145 229 247 388 247 l35 0 0 623 c0 678 6 779
56 977 179 710 782 1232 1534 1329 108 14 357 12 470 -4z"/>
<path d="M3362 5569 c-499 -48 -942 -349 -1152 -784 -54 -111 -82 -188 -113
-315 -20 -81 -21 -117 -24 -772 l-4 -688 1430 0 1431 0 0 653 c0 717 -2 750
-61 935 -117 366 -384 668 -742 837 -162 77 -309 116 -502 135 -113 11 -145
11 -263 -1z"/>
<path d="M1616 2614 c-14 -14 -16 -72 -16 -493 0 -450 1 -479 18 -494 17 -16
162 -17 1884 -17 1794 0 1866 1 1881 18 15 17 17 66 17 495 0 419 -2 477 -16
491 -14 14 -199 16 -1884 16 -1685 0 -1870 -2 -1884 -16z"/>
</g>
</svg>
