<svg xmlns="http://www.w3.org/2000/svg" width="2048" height="2048" viewBox="0 0 2048 2048">
  <defs>
    <style>
      .cls-1 {
        fill: #fff;
      }

      .cls-2 {
        fill: none;
        stroke: #524f86;
        stroke-miterlimit: 10;
        stroke-width: 110px;
      }

      .cls-3 {
        fill: #524f86;
      }
    </style>
  </defs>
  <title>Asset 2</title>
  <g id="Layer_2" data-name="Layer 2">
    <g id="Layer_1-2" data-name="Layer 1">
      <rect class="cls-1" width="2048" height="2048" rx="265.03"/>
      <g>
        <path class="cls-2" d="M550.14,1204V822.77C550.14,568,762.48,361.5,1024.4,361.5h0c261.93,0,474.26,206.52,474.26,461.27V1204"/>
        <path class="cls-3" d="M1565.3,1278a14.14,14.14,0,0,1,14.12,14.13v270.22a14.14,14.14,0,0,1-14.12,14.13H482.7a14.14,14.14,0,0,1-14.12-14.13V1292.15A14.14,14.14,0,0,1,482.7,1278H1565.3m0-110H482.7a124.13,124.13,0,0,0-124.12,124.13v270.22A124.12,124.12,0,0,0,482.7,1686.5H1565.3a124.12,124.12,0,0,0,124.12-124.13V1292.15A124.13,124.13,0,0,0,1565.3,1168Z"/>
      </g>
    </g>
  </g>
</svg>
