<?xml version="1.0" encoding="UTF-8" standalone="no"?>
<!DOCTYPE svg PUBLIC "-//W3C//DTD SVG 1.1//EN" "http://www.w3.org/Graphics/SVG/1.1/DTD/svg11.dtd">
<!-- Created with Vectornator (http://vectornator.io/) -->
<svg height="100%" stroke-miterlimit="10" style="fill-rule:nonzero;clip-rule:evenodd;stroke-linecap:round;stroke-linejoin:round;" version="1.1" viewBox="0 0 1024 1024" width="100%" xml:space="preserve" xmlns="http://www.w3.org/2000/svg" xmlns:xlink="http://www.w3.org/1999/xlink">
<defs/>
<g id="Layer-1">
<g opacity="1"/>
<path d="M383.813 250.404C333.404 285.787 279.72 316.025 232.587 356.555C204.647 380.58 180.189 410.19 160.322 442.581C145.495 466.752 138.198 495.782 130.128 523.593C121.331 553.909 109.501 609.263 109.501 609.263C109.501 609.263 97.2472 607.359 69.8636 614.435C54.5157 618.4 44.6329 624.463 27.7235 636.256C18.5365 642.664 7.31331 666.379 5.23222 678.168C-1.64165 717.105-1.91792 783.309 5.44671 827.869C9.71611 853.702 11.3091 881.272 23.9261 903.519C32.3145 918.311 44.7416 936.151 60.5201 936.775C361.993 948.685 663.892 946.761 965.508 940.718C977.779 940.472 990.194 929.939 996.082 918.03C1011.45 886.953 1017.82 842.324 1021.82 810.595C1021.82 810.595 1025.08 744.845 1023.63 711.929C1022.64 689.63 1018.42 657.879 1002.87 642.186C986.519 625.68 986.957 620.735 961.837 609.152C949.246 603.347 917.124 599.324 917.124 599.324C917.124 599.324 903.047 565.749 892.312 542.92C873.423 502.747 855.031 461.951 831.483 424.911C808.235 388.342 783.308 352.115 752.562 323.094C718.929 291.349 677.841 270.782 640.481 244.625C646.444 225.687 658.502 189.093 655.83 169.258C651.426 136.575 628.369 114.607 603.929 95.5931C571.197 70.129 545.021 79.7832 505.101 82.9164C472.054 85.5102 435.665 80.4359 410.714 104.538C390.811 123.763 383.754 147.072 372.851 173.692C361.974 200.25 374.034 224.562 383.813 250.404Z" fill="#000000" fill-rule="nonzero" opacity="1" stroke="none"/>
</g>
</svg>
