<svg id="Layer_1" data-name="Layer 1" xmlns="http://www.w3.org/2000/svg" width="4617" height="2050" viewBox="0 0 4617 2050">
  <defs>
    <style>
      .cls-1 {
        fill: #fff;
      }

      .cls-2 {
        fill: #2d3f4e;
      }

      .cls-3, .cls-5 {
        fill: none;
        stroke-miterlimit: 10;
      }

      .cls-3 {
        stroke: #524f86;
        stroke-width: 110px;
      }

      .cls-4 {
        fill: #524f86;
      }

      .cls-5 {
        stroke: #fff;
        stroke-width: 100px;
      }
    </style>
  </defs>
  <title>beaneibytelogo</title>
  <rect class="cls-1" width="2048" height="2048" rx="265.03"/>
  <rect class="cls-2" x="2569" y="2" width="2048" height="2048" rx="380.38"/>
  <g>
    <path class="cls-3" d="M550.14,1204V822.77C550.14,568,762.48,361.5,1024.4,361.5h0c261.93,0,474.26,206.52,474.26,461.27V1204"/>
    <path class="cls-4" d="M1565.3,1278a14.14,14.14,0,0,1,14.12,14.13v270.22a14.14,14.14,0,0,1-14.12,14.13H482.7a14.14,14.14,0,0,1-14.12-14.13V1292.15A14.14,14.14,0,0,1,482.7,1278H1565.3m0-110H482.7a124.13,124.13,0,0,0-124.12,124.13v270.22A124.12,124.12,0,0,0,482.7,1686.5H1565.3a124.12,124.12,0,0,0,124.12-124.13V1292.15A124.13,124.13,0,0,0,1565.3,1168Z"/>
  </g>
  <g>
    <path class="cls-5" d="M3072.11,1225.32V803.21c0-282.06,233.21-510.71,520.89-510.71h0c287.68,0,520.89,228.65,520.89,510.71v422.11"/>
    <path class="cls-1" d="M4177.25,1285.46a24.16,24.16,0,0,1,24.13,24.12v325.79a24.16,24.16,0,0,1-24.13,24.13H3008.75a24.16,24.16,0,0,1-24.13-24.13V1309.58a24.16,24.16,0,0,1,24.13-24.12h1168.5m0-100H3008.75a124.13,124.13,0,0,0-124.13,124.12v325.79a124.13,124.13,0,0,0,124.13,124.13h1168.5a124.13,124.13,0,0,0,124.13-124.13V1309.58a124.13,124.13,0,0,0-124.13-124.12Z"/>
  </g>
</svg>
