<svg xmlns="http://www.w3.org/2000/svg" width="1330.85" height="1385" viewBox="0 0 1330.85 1385">
  <defs>
    <style>
      .cls-1 {
        fill: none;
        stroke: #fff;
        stroke-miterlimit: 10;
        stroke-width: 120px;
      }

      .cls-2 {
        fill: #fff;
      }
    </style>
  </defs>
  <title>Asset 4</title>
  <g id="Layer_2" data-name="Layer 2">
    <g id="Layer_1-2" data-name="Layer 1">
      <g>
        <path class="cls-1" d="M191.57,902.53V521.27C191.57,266.52,403.9,60,665.83,60h0c261.92,0,474.26,206.52,474.26,461.27V902.53"/>
        <path class="cls-2" d="M1206.72,986.52a4.08,4.08,0,0,1,4.13,4.13v270.22a4.08,4.08,0,0,1-4.13,4.13H124.13a4.08,4.08,0,0,1-4.13-4.13V990.65a4.08,4.08,0,0,1,4.13-4.13H1206.72m0-120H124.13A124.13,124.13,0,0,0,0,990.65v270.22A124.12,124.12,0,0,0,124.13,1385H1206.72a124.13,124.13,0,0,0,124.13-124.13V990.65a124.14,124.14,0,0,0-124.13-124.13Z"/>
      </g>
    </g>
  </g>
</svg>
